<svg id="Layer_1" data-name="Layer 1" xmlns="http://www.w3.org/2000/svg" viewBox="0 0 347 400"><title>QWIX</title><polygon points="176.45 235.91 206.03 218.91 206.03 184.8 176.45 201.82 176.45 235.91"/><polygon points="176.45 282.91 176.45 316.95 276.37 259.28 276.37 144.21 246.69 161.33 246.83 242.34 176.45 282.91"/><polygon points="299.64 211.84 299.64 245.91 313.06 238.16 347 218.65 347 103.61 317.13 120.7 317.13 201.71 299.64 211.84"/><polygon points="208.96 345.3 208.95 345.3 208.88 345.26 176.46 363.95 176.46 398 244.04 359.04 314.98 400 344.49 382.96 244.1 325 229.35 333.52 208.96 345.3 208.96 345.3"/><polygon points="347 299.67 347 265.63 249.68 321.74 279.18 338.77 347 299.67"/><polygon points="141.34 184.62 141.34 218.66 170.84 235.87 170.84 201.81 141.34 184.62"/><polygon points="100.39 160.95 70.67 143.79 70.67 258.95 170.84 316.94 170.84 282.9 100.39 242.04 100.39 160.95"/><polygon points="0 299.24 170.84 398 170.84 363.95 29.72 282.33 29.72 120.15 0 102.99 0 299.24"/><polygon points="208.95 341.98 208.95 341.98 208.91 342 208.91 342 208.91 342 208.95 341.98"/><polygon points="208.95 342.02 208.91 342 208.91 342 208.95 342.02 208.95 342.02"/><polygon points="208.95 341.98 208.91 342 208.95 342.02 208.96 342 208.95 341.98"/><polygon points="314.33 115.8 344.17 98.75 173.63 0 125.65 27.25 155.36 44.4 173.67 34.21 314.33 115.8"/><polygon points="49.81 70.99 2.81 98.13 32.53 115.29 79.53 88.15 49.81 70.99"/><polygon points="2.81 98.13 32.53 115.29 32.53 115.29 2.81 98.13 2.81 98.13"/><polygon points="244.09 156.34 273.56 139.35 102.53 40.55 73.03 57.58 143.7 98.38 73.48 138.93 103.2 156.09 173.65 115.54 244.09 156.34" fill="#009fe3"/><polygon points="244.1 156.34 273.56 139.35 273.56 139.35 244.09 156.34 244.1 156.34" fill="#009fe3"/><polygon points="73.48 138.93 103.2 156.09 103.2 156.09 73.48 138.93 73.48 138.93" fill="#009fe3"/><polygon points="173.64 162.7 144.13 179.74 173.65 196.96 203.23 179.93 173.64 162.7"/><polygon points="144.13 179.74 173.65 196.96 173.65 196.96 144.13 179.74 144.13 179.74"/></svg>