<svg id="Layer_1" data-name="Layer 1" xmlns="http://www.w3.org/2000/svg" viewBox="0 0 325 400"><title>QWIX</title><path d="M22.47,370.49v3.06H13v25.83H9.72V373.55H.31v-3.06Z" fill="#009fe3"/><path d="M46.86,370.49v3.06H30.56v9.69H45.12v3H30.56v10.07H47.39v3.06H27.26V370.49Z" fill="#009fe3"/><path d="M66.49,373.42a11.5,11.5,0,1,0,0,23A12.6,12.6,0,0,0,75,392.94l2,2.19a15.89,15.89,0,0,1-10.73,4.37,14.66,14.66,0,0,1-14.94-14.61c0-8.08,6.69-14.48,15.06-14.48A15.64,15.64,0,0,1,77,374.62L75,377A12.24,12.24,0,0,0,66.49,373.42Z" fill="#009fe3"/><path d="M86.3,370.49v13.08h17.41V370.49H107v28.89h-3.3v-12.8H86.3v12.8H83V370.49Z" fill="#009fe3"/><path d="M119.18,370.49,136.51,394V370.49h3.26v28.89h-3.38l-17.33-23.44v23.44h-3.31V370.49Z" fill="#009fe3"/><path d="M176.08,384.93c0,8.13-6.69,14.57-15.11,14.57s-15.14-6.44-15.14-14.57,6.69-14.52,15.14-14.52S176.08,376.81,176.08,384.93Zm-26.91,0a11.76,11.76,0,0,0,23.52,0,11.76,11.76,0,0,0-23.52,0Z" fill="#009fe3"/><path d="M185.4,370.49v25.83h12.67v3.06h-16V370.49Z" fill="#009fe3"/><path d="M231,384.93c0,8.13-6.69,14.57-15.1,14.57s-15.15-6.44-15.15-14.57,6.69-14.52,15.15-14.52S231,376.81,231,384.93Zm-26.9,0a11.76,11.76,0,0,0,23.52,0,11.76,11.76,0,0,0-23.52,0Z" fill="#009fe3"/><path d="M256.4,385.26h2.93v10.49a17.84,17.84,0,0,1-10.72,3.75,14.73,14.73,0,0,1-15.06-14.57c0-8.12,6.72-14.52,15.22-14.52a16.4,16.4,0,0,1,10.65,4l-1.9,2.39a13.29,13.29,0,0,0-8.75-3.34,11.54,11.54,0,1,0,0,23.07,13.76,13.76,0,0,0,7.59-2.44Z" fill="#009fe3"/><path d="M270.64,370.49v28.89h-3.3V370.49Z" fill="#009fe3"/><path d="M299,370.49v3.06h-16.3v9.69h14.57v3H282.68v10.07h16.84v3.06H279.38V370.49Z" fill="#009fe3"/><path d="M314.62,373.59c-3.72,0-6.15,1.48-6.15,4,0,7.51,16.26,3.59,16.22,14.07,0,4.79-4.25,7.88-10.44,7.88a16.48,16.48,0,0,1-11.06-4.42l1.48-2.84a14.51,14.51,0,0,0,9.62,4c4.16,0,6.76-1.69,6.76-4.5.05-7.71-16.21-3.63-16.21-14,0-4.54,4-7.43,10-7.43a17,17,0,0,1,9.16,2.68l-1.4,2.93A15.22,15.22,0,0,0,314.62,373.59Z" fill="#009fe3"/><path d="M100.31,345.45l-9.1-4.82a21.7,21.7,0,0,0,3.73-12.29c0-12.59-10-22-23.31-22s-23.3,9.36-23.3,22,10,22.13,23.3,22.13a24.48,24.48,0,0,0,13.11-3.65l6.88,3.65ZM58.37,328.34a13.34,13.34,0,0,1,13.39-13.45,13.52,13.52,0,0,1,0,27A13.49,13.49,0,0,1,58.37,328.34Z" fill="#1d1d1b"/><path d="M115.34,306.45l8.23,31.38,8.18-31.38h11.08l8.23,31.38,8.17-31.38h11.64l-14.3,43.39h-11.7l-7.8-29.28-8,29.28H117.38l-14.23-43.39Z" fill="#1d1d1b"/><path d="M206.72,336v13.86H195.39V336.29l-16-29.84h11.32L201,325.08l10-18.63h11.33Z" fill="#1d1d1b"/><path d="M245.78,306.45l8.11,12.32,8.17-12.32h13.37l-14.3,20.74,15.54,22.65H263.11l-9.22-13.43-9,13.43H231.6L247,327.74l-14.43-21.29Z" fill="#1d1d1b"/><polygon points="164.22 145.22 182.36 134.78 182.36 113.86 164.22 124.31 164.22 145.22"/><polygon points="164.22 174.04 164.22 194.93 225.51 159.55 225.51 88.97 207.3 99.47 207.39 149.16 164.22 174.04"/><polygon points="239.79 130.45 239.79 151.35 248.02 146.6 268.84 134.63 268.84 64.06 250.52 74.54 250.52 124.23 239.79 130.45"/><polygon points="184.16 212.32 184.15 212.32 184.11 212.29 164.22 223.76 164.22 244.65 205.68 220.75 249.2 245.87 267.3 235.42 205.72 199.87 196.67 205.09 184.16 212.32 184.16 212.32"/><polygon points="268.84 184.33 268.84 163.45 209.14 197.87 227.24 208.31 268.84 184.33"/><polygon points="142.68 113.75 142.68 134.63 160.78 145.19 160.78 124.3 142.68 113.75"/><polygon points="117.56 99.23 99.33 88.71 99.33 159.35 160.78 194.92 160.78 174.04 117.56 148.97 117.56 99.23"/><polygon points="55.98 184.06 160.78 244.64 160.78 223.76 74.21 173.69 74.21 74.2 55.98 63.68 55.98 184.06"/><polygon points="184.15 210.28 184.15 210.28 184.13 210.29 184.13 210.29 184.13 210.29 184.15 210.28"/><polygon points="184.16 210.31 184.13 210.29 184.13 210.29 184.16 210.31 184.16 210.31"/><polygon points="184.15 210.28 184.13 210.29 184.16 210.31 184.16 210.29 184.15 210.28"/><polygon points="248.8 71.54 267.11 61.08 162.49 0.5 133.06 17.22 151.28 27.74 162.52 21.49 248.8 71.54"/><polygon points="86.53 44.05 57.7 60.7 75.94 71.22 104.77 54.57 86.53 44.05"/><polygon points="57.7 60.7 75.93 71.22 75.94 71.22 57.7 60.7 57.7 60.7"/><polygon points="205.71 96.41 223.79 85.98 118.88 25.38 100.78 35.82 144.13 60.85 101.05 85.72 119.28 96.25 162.5 71.38 205.71 96.41" fill="#009fe3"/><polygon points="205.72 96.41 223.79 85.98 223.79 85.98 205.71 96.41 205.72 96.41" fill="#009fe3"/><polygon points="101.05 85.72 119.28 96.25 119.28 96.25 101.05 85.72 101.05 85.72" fill="#009fe3"/><polygon points="162.5 100.31 144.39 110.76 162.5 121.32 180.65 110.87 162.5 100.31"/><polygon points="144.39 110.76 162.5 121.32 162.5 121.32 144.39 110.76 144.39 110.76"/></svg>