<svg id="Layer_1" data-name="Layer 1" xmlns="http://www.w3.org/2000/svg" viewBox="0 0 213 245"><title>QWIX</title><polygon points="108.31 144.5 126.42 134.08 126.42 113.19 108.31 123.62 108.31 144.5"/><polygon points="108.31 173.28 108.31 194.13 169.51 158.81 169.51 88.33 151.33 98.81 151.42 148.43 108.31 173.28"/><polygon points="183.76 129.75 183.76 150.62 191.98 145.88 212.77 133.92 212.77 63.46 194.47 73.93 194.47 123.54 183.76 129.75"/><polygon points="128.22 211.5 128.21 211.5 128.17 211.47 108.31 222.92 108.31 243.78 149.71 219.91 193.16 245 211.23 234.56 149.74 199.06 140.71 204.28 128.22 211.5 128.22 211.5"/><polygon points="212.77 183.55 212.77 162.7 153.16 197.07 171.23 207.5 212.77 183.55"/><polygon points="86.8 113.08 86.8 133.93 104.87 144.47 104.87 123.61 86.8 113.08"/><polygon points="61.72 98.58 43.52 88.07 43.52 158.6 104.87 194.13 104.87 173.28 61.72 148.25 61.72 98.58"/><polygon points="0.23 183.28 104.87 243.77 104.87 222.92 18.44 172.93 18.44 73.59 0.23 63.08 0.23 183.28"/><polygon points="128.21 209.46 128.21 209.46 128.19 209.47 128.19 209.47 128.19 209.47 128.21 209.46"/><polygon points="128.21 209.49 128.19 209.47 128.19 209.47 128.21 209.49 128.21 209.49"/><polygon points="128.21 209.46 128.19 209.47 128.21 209.49 128.22 209.48 128.21 209.46"/><polygon points="192.76 70.93 211.04 60.48 106.58 0 77.19 16.69 95.39 27.2 106.61 20.95 192.76 70.93"/><polygon points="30.74 43.48 1.95 60.1 20.16 70.61 48.95 53.99 30.74 43.48"/><polygon points="1.95 60.11 20.16 70.62 20.16 70.61 1.95 60.1 1.95 60.11"/><polygon points="149.74 95.76 167.79 85.35 63.03 24.84 44.97 35.27 88.25 60.26 45.24 85.09 63.44 95.61 106.59 70.77 149.74 95.76" fill="#009fe3"/><polygon points="149.74 95.76 167.79 85.35 167.79 85.35 149.74 95.76 149.74 95.76" fill="#009fe3"/><polygon points="45.23 85.09 63.44 95.61 63.44 95.61 45.24 85.09 45.23 85.09" fill="#009fe3"/><polygon points="106.59 99.66 88.51 110.09 106.59 120.64 124.71 110.21 106.59 99.66"/><polygon points="88.51 110.09 106.59 120.64 106.59 120.64 88.51 110.09 88.51 110.09"/></svg>