<?xml version="1.0" encoding="UTF-8" standalone="no"?>
<svg
   xmlns:dc="http://purl.org/dc/elements/1.1/"
   xmlns:cc="http://creativecommons.org/ns#"
   xmlns:rdf="http://www.w3.org/1999/02/22-rdf-syntax-ns#"
   xmlns:svg="http://www.w3.org/2000/svg"
   xmlns="http://www.w3.org/2000/svg"
   xmlns:sodipodi="http://sodipodi.sourceforge.net/DTD/sodipodi-0.dtd"
   xmlns:inkscape="http://www.inkscape.org/namespaces/inkscape"
   width="12.700302cm"
   height="12.352827cm"
   viewBox="-47.9621 1.92055 127.00302 123.52827"
   version="1.1"
   id="svg3388"
   inkscape:version="0.91 r13725"
   sodipodi:docname="logo from 123d.svg">
  <metadata
     id="metadata3400">
    <rdf:RDF>
      <cc:Work
         rdf:about="">
        <dc:format>image/svg+xml</dc:format>
        <dc:type
           rdf:resource="http://purl.org/dc/dcmitype/StillImage" />
        <dc:title>logo v3.123dx</dc:title>
      </cc:Work>
    </rdf:RDF>
  </metadata>
  <defs
     id="defs3398" />
  <sodipodi:namedview
     pagecolor="#ffffff"
     bordercolor="#666666"
     borderopacity="1"
     objecttolerance="10"
     gridtolerance="10"
     guidetolerance="10"
     inkscape:pageopacity="0"
     inkscape:pageshadow="2"
     inkscape:window-width="1736"
     inkscape:window-height="1236"
     id="namedview3396"
     showgrid="true"
     inkscape:zoom="1"
     inkscape:cx="165.30234"
     inkscape:cy="55.000827"
     inkscape:window-x="370"
     inkscape:window-y="121"
     inkscape:window-maximized="0"
     inkscape:current-layer="svg3388"
     fit-margin-top="0"
     fit-margin-left="0"
     fit-margin-right="0"
     fit-margin-bottom="0">
    <inkscape:grid
       type="xygrid"
       id="grid3410"
       originx="27.456072"
       originy="-7.0610067" />
  </sodipodi:namedview>
  <title
     id="title3390">logo v3.123dx</title>
  <desc
     id="desc3392"> made with 123D Design </desc>
  <path
     style="fill:#000000"
     d="m 8.2983454,125.10864 c -6.05835,-0.67406 -12.701928,-2.42817 -18.264101,-4.82229 C -39.233628,107.68859 -54.35893,76.07684 -45.389912,46.250193 -41.746484,34.133897 -34.071878,23.004937 -24.022844,15.265771 -15.287615,8.538415 -5.1952906,4.244681 6.0101194,2.488381 9.4889204,1.943124 9.8684514,1.92052 15.54439,1.92055 c 5.7122,2.9e-5 6.036463,0.01969 9.62962,0.583795 17.889814,2.808612 33.417892,12.466624 43.23279,26.88953 16.239891,23.864384 13.665619,55.225496 -6.259062,76.251125 -10.291156,10.8598 -24.415558,17.81222 -39.54798,19.46659 -4.123657,0.45084 -10.234233,0.44957 -14.3014126,-0.003 z m 4.3502896,-2.48008 C 12.327794,122.10133 -9.7707336,95.574874 -9.8891146,95.574874 c -0.06804,0 -1.3148874,4.324707 -2.7707274,9.610456 -1.455837,5.28575 -2.678088,9.69403 -2.71611,9.79617 -0.100278,0.26935 4.735625,2.67975 7.8454694,3.91054 5.324164,2.10714 11.258392,3.53699 16.942734,4.08233 2.1348376,0.20483 2.9403386,0.3509 3.0811736,0.55881 0.156031,0.23033 0.201561,0.19684 0.250555,-0.18404 0.03293,-0.25603 -0.01006,-0.58032 -0.09533,-0.7206 z m 6.42344,0.52125 c 5.795703,-0.24748 12.864665,-1.7452 18.774843,-3.97785 3.519721,-1.32962 8.945717,-4.02054 8.808627,-4.36847 -0.04966,-0.12604 -1.386748,-4.89557 -2.971301,-10.59894 -1.58455,-5.703368 -2.926238,-10.413815 -2.981528,-10.46766 -0.05525,-0.05383 -0.246784,-0.01229 -0.425557,0.09251 -0.178768,0.104747 -5.881123,3.311226 -12.671911,7.125548 l -12.346884,6.9351 0,7.78536 0,7.78536 0.524383,-0.0964 c 0.288412,-0.053 1.768609,-0.14958 3.289328,-0.21453 z M 12.715573,96.007892 c -0.0367,-0.03573 -4.5331056,-0.04327 -9.9920796,-0.01704 l -9.9254,0.04813 9.943008,12.030648 9.9430106,12.03065 0.04908,-12.0138 c 0.02709,-6.6076 0.01927,-12.043037 -0.0176,-12.078757 l -5e-6,8e-6 z M -6.4620246,74.171876 4.5169144,34.383654 l 4.131271,-0.05006 4.1312666,-0.05006 -0.0047,-4.871248 -0.0047,-4.871249 -0.93535,-0.617787 c -0.514691,-0.33978 -1.252556,-1.06598 -1.639946,-1.613771 l -0.7043456,-0.99599 -8.60472798,4.168219 c -4.73260302,2.292521 -8.84003202,4.288885 -9.12761402,4.436367 -0.607473,0.311521 -0.567762,0.356826 -1.364584,-1.556835 -2.1381844,-5.135113 -2.3963504,-11.251395 -0.7197514,-17.051991 0.302598,-1.046936 0.4725064,-1.90352 0.3775584,-1.90352 -0.4300184,0 -6.1615054,3.151529 -8.5123724,4.680632 -21.247615,13.820336 -31.472197,39.136394 -25.561029,63.288977 3.434406,14.032721 11.598823,25.931452 23.813124,34.704962 1.415841,1.017 2.617883,1.85599 2.671211,1.86444 0.05335,0.008 5.037481,-17.88937 11.0758984,-39.77289 z m 19.2414766,7.350991 c 0,-6.707199 -0.03338,-12.16009 -0.07416,-12.117532 -0.893162,0.931555 -20.5198416,24.022266 -20.5198416,24.14151 0,0.10201 4.152928,0.170919 10.297017,0.170919 l 10.2970126,0 0,-12.194916 z m 13.634013,6.075819 c 5.977991,-3.363181 10.869069,-6.182697 10.869069,-6.265586 0,-0.496146 -3.654556,-13.241808 -3.796998,-13.242436 -0.09567,-3.72e-4 -4.234342,2.276491 -9.197014,5.05981 l -9.023038,5.060581 -0.0036,7.753361 c -0.002,4.264348 0.06081,7.752412 0.139467,7.751259 0.07866,-8.35e-4 5.034096,-2.753794 11.012087,-6.116989 l 8e-6,0 z M 2.9332244,77.522127 c 5.625181,-6.09876 10.2276006,-11.133805 10.2276006,-11.188988 0,-0.0552 -3.3870396,-0.100362 -7.5267526,-0.100362 l -7.526748,0 -0.284546,0.974976 c -1.618876,5.547071 -5.813114,21.183437 -5.721065,21.328482 0.06559,0.103379 0.228293,0.162428 0.361587,0.131227 0.133266,-0.03123 4.84474,-5.046609 10.469921,-11.14536 z M 23.335976,59.673301 c 3.656106,-2.052319 6.68561,-3.828285 6.732227,-3.94659 0.06788,-0.172288 -3.458635,-13.228472 -3.613898,-13.379685 -0.02374,-0.02318 -2.531054,1.360286 -5.571863,3.074183 l -5.528736,3.116182 -0.04975,7.845849 -0.04975,7.845846 0.717156,-0.41215 c 0.394432,-0.226672 3.708516,-2.091316 7.364622,-4.143635 z M 12.131345,63.679299 C 12.000984,63.26297 6.1054644,39.853552 6.1054644,39.752288 c 0,-0.04176 -0.156255,-0.07592 -0.347221,-0.07592 -0.297515,0 -0.751985,1.468566 -3.175206,10.260439 -1.555394,5.643242 -3.06556298,11.117023 -3.35592698,12.163961 l -0.52793802,1.90352 6.766964,0 c 6.3563636,0 6.7607846,-0.01955 6.6652086,-0.324992 z m 0.648107,-18.988777 0,-7.9855 -2.47891,0 c -1.3634026,0 -2.4789096,0.061 -2.4789096,0.135579 0,0.198832 4.2234596,15.531976 4.3234466,15.696153 0.04665,0.07659 0.208488,0.139271 0.3596,0.139271 0.234969,0 0.274773,-1.15644 0.274773,-7.985498 z m 13.729355,-11.885396 0,-1.485677 0.524389,0.0092 c 0.288411,0.005 9.791692,0.661654 21.118412,1.459136 11.326723,0.79748 20.620278,1.429382 20.652356,1.404229 0.133154,-0.104384 -3.19544,-4.985724 -4.804783,-7.046177 -0.955261,-1.223041 -3.195586,-3.670313 -4.978499,-5.438384 l -3.241654,-3.214675 -0.953421,0.271959 c -0.524391,0.149576 -6.960025,1.785721 -14.301419,3.635878 -7.341387,1.850154 -13.498146,3.407656 -13.681679,3.46112 -0.309412,0.09012 -0.333702,-0.153788 -0.333702,-3.350937 l 0,-3.448137 2.612391,0 c 1.865194,0 2.553689,-0.05717 2.407138,-0.199899 -0.112875,-0.109928 -3.669648,-2.141547 -7.903913,-4.514678 L 15.925764,10.033301 15.873254,6.999545 15.820744,3.965788 12.726958,4.096056 C 8.6897074,4.266051 4.1482524,4.941871 0.00597242,5.989082 -1.8280506,6.452743 -3.3516526,6.854538 -3.3798106,6.881962 c -0.02802,0.02743 2.94272302,1.992098 6.601958,4.365941 l 6.653156,4.31608 0.9239316,-0.961981 c 1.05167,-1.094979 2.352884,-1.808489 3.602258,-1.975266 l 0.856908,-0.114388 0,10.889237 0,10.889238 5.62522,0 5.625223,0 0,-1.485674 z M -5.8929916,26.298087 c 1.19,-0.582709 1.509266,-0.820951 1.430977,-1.067831 -0.712517,-2.246857 -0.938074,-3.809634 -0.930399,-6.446186 0.0089,-3.081401 0.33702,-4.846023 1.391872,-7.487014 0.313481,-0.784868 0.570371,-1.477877 0.570851,-1.540021 7.63e-4,-0.09894 -0.675824,-0.563661 -2.502127,-1.718589 l -0.500802,-0.316701 -0.800437,1.939633 c -1.541861,3.736269 -2.159432,7.833204 -1.739067,11.536914 0.224549,1.978607 1.150004,5.849845 1.39843,5.849845 0.0819,0 0.838238,-0.337525 1.680702,-0.75005 z m 5.54214302,-2.60594 1.54401698,-0.756055 -0.165807,-0.961755 c -0.09117,-0.528963 -0.15471898,-2.131724 -0.14117098,-3.561686 0.02151,-2.293406 0.08349,-2.76236 0.52397498,-3.977672 0.27466,-0.75776 0.47809,-1.392853 0.452098,-1.411321 -1.30071898,-0.924077 -3.077129,-1.943237 -3.182024,-1.825585 -0.333196,0.373729 -1.173682,3.083652 -1.46003,4.707504 -0.211896,1.201598 -0.280585,2.356491 -0.215359,3.621332 0.101339,1.96544 0.664604,4.921297 0.937797,4.921297 0.08933,0 0.857252,-0.340226 1.70645902,-0.756059 z M 6.1556724,20.527282 c 1.493102,-0.726543 2.726376,-1.332421 2.740616,-1.346391 0.01424,-0.01394 0.08159,-0.359679 0.14969,-0.76824 l 0.123797,-0.742836 -2.510885,-1.578529 c -1.38098,-0.868191 -2.580352,-1.604776 -2.665259,-1.636856 -0.221421,-0.08366 -0.721977,1.671752 -0.865363,3.034733 -0.115529,1.098113 0.05799,4.359111 0.231896,4.359111 0.04441,0 1.302393,-0.594446 2.795491,-1.320992 z"
     id="path4907"
     inkscape:connector-curvature="0" />
</svg>
