<?xml version="1.0" encoding="UTF-8" standalone="no"?>
<svg
   xmlns:dc="http://purl.org/dc/elements/1.1/"
   xmlns:cc="http://creativecommons.org/ns#"
   xmlns:rdf="http://www.w3.org/1999/02/22-rdf-syntax-ns#"
   xmlns:svg="http://www.w3.org/2000/svg"
   xmlns="http://www.w3.org/2000/svg"
   xmlns:sodipodi="http://sodipodi.sourceforge.net/DTD/sodipodi-0.dtd"
   xmlns:inkscape="http://www.inkscape.org/namespaces/inkscape"
   width="4.61694cm"
   height="4.61847cm"
   viewBox="-47.9621 1.92055 46.1694 46.1847"
   version="1.1"
   id="svg3388"
   inkscape:version="0.91 r13725"
   sodipodi:docname="logo.svg">
  <metadata
     id="metadata3400">
    <rdf:RDF>
      <cc:Work
         rdf:about="">
        <dc:format>image/svg+xml</dc:format>
        <dc:type
           rdf:resource="http://purl.org/dc/dcmitype/StillImage" />
      </cc:Work>
    </rdf:RDF>
  </metadata>
  <defs
     id="defs3398" />
  <sodipodi:namedview
     pagecolor="#ffffff"
     bordercolor="#666666"
     borderopacity="1"
     objecttolerance="10"
     gridtolerance="10"
     guidetolerance="10"
     inkscape:pageopacity="0"
     inkscape:pageshadow="2"
     inkscape:window-width="1330"
     inkscape:window-height="943"
     id="namedview3396"
     showgrid="true"
     inkscape:zoom="4.5065493"
     inkscape:cx="68.017042"
     inkscape:cy="80.020143"
     inkscape:window-x="2777"
     inkscape:window-y="437"
     inkscape:window-maximized="0"
     inkscape:current-layer="svg3388">
    <inkscape:grid
       type="xygrid"
       id="grid3410" />
  </sodipodi:namedview>
  <title
     id="title3390">logo v3.123dx</title>
  <desc
     id="desc3392"> made with 123D Design </desc>
  <path
     d="m -41.091175,13.2927 0.0063,-0.0079 1.26365,-1.5718 0.0071,-0.0073 1.4161,-1.4359 0.0078,-0.0065 1.5541,-1.2853 0.0084,-0.0057 1.6761,-1.1216 0.009,-0.0047 1.7809,-0.9464 -0.0016,0.0058 -0.3224,1.1496 -9e-4,0.0059 -0.1666,1.1822 -10e-5,0.006 -0.0079,1.1939 8e-4,0.0059 0.151,1.1844 0.3072,1.1537 0.0015,0.0058 0.0023,0.0055 0.4579,1.1026 0.0303,-0.015 6.017,-2.9838 10e-4,0.0016 0.1873,0.3113 0.0011,0.0014 0.2352,0.277 0.0014,0.0011 0.2769,0.2353 0.0016,9e-4 0.3113,0.1874 0,0.0155 0,3.0867 -0.0135,0 -2.6918,0 -0.036,0.134 -7.1636,26.65523 -0.0082,-0.006 -1.6333,-1.18306 -0.0076,-0.0067 -1.5052,-1.34218 -0.0069,-0.0075 -1.3618,-1.4875 -0.006,-0.0082 -1.20437,-1.6176 -0.0052,-0.0087 -1.03458,-1.7312 -0.0043,-0.0092 -0.85418,-1.8269 -0.0033,-0.0096 -0.66502,-1.904 -0.0024,-0.0098 -0.46903,-1.9615 -0.0014,-0.01 -0.26825,-1.9989 -3.2e-4,-0.0101 -0.06471,-2.0157 7e-4,-0.0102 0.13951,-2.0119 0.0017,-0.01 0.34228,-1.9875 0.0027,-0.0098 0.54155,-1.9427 0.0037,-0.0094 0.73526,-1.878 0.0046,-0.009 0.92143,-1.7939 1.09815,-1.6916 z m -0.58283,-0.8704 -1.20095,1.7849 -0.006,0.0089 -1.01106,1.899 -0.0051,0.0095 -0.81045,1.9928 -0.0041,0.01 -0.60126,2.0656 -0.003,0.0104 -0.38569,2.1164 -0.0019,0.0106 -0.16603,2.1449 -8.4e-4,0.0108 0.05539,2.1506 2.8e-4,0.0108 0.27623,2.1335 0.0014,0.0107 0.49413,2.0938 0.0025,0.0105 0.7068,2.0319 0.0035,0.0102 0.91196,1.9484 0.0046,0.0098 1.10747,1.8443 0.0056,0.0093 1.29124,1.7207 0.0065,0.0087 1.4613,1.57876 0.0074,0.0079 1.6159,1.42018 0.0081,0.0071 1.7534,1.24651 0.0088,0.0063 1.8722,1.05962 0.0094,0.0053 1.9713,0.8615 0.0099,0.0043 2.0494,0.65424 0.0103,0.0033 2.1058,0.44005 0.0106,0.0022 2.1399,0.2212 0.0107,0.0011 2.1513,0 0.0108,0 2.1399,-0.2212 0.0108,-0.0011 2.1058,-0.44005 0.0106,-0.0022 2.0494,-0.65424 0.0103,-0.0033 1.9713,-0.8615 0.0099,-0.0043 1.8722,-1.05961 0.0094,-0.0053 1.7534,-1.2465 0.0088,-0.0063 1.6159,-1.42018 0.0081,-0.0071 1.4613002,-1.57879 0.0074,-0.0079 1.2912,-1.7207 0.0065,-0.0087 1.1075,-1.8443 0.0055,-0.0093 0.912,-1.9484 0.0046,-0.0098 0.7068,-2.0319 0.0035,-0.0102 0.4942,-2.0938 0.0024,-0.0105 0.2763,-2.1335 0.0014,-0.0107 0.0554,-2.1506 2e-4,-0.0108 -0.166,-2.1449 -8e-4,-0.0108 -0.3857,-2.1164 -0.002,-0.0106 -0.6012,-2.0656 -0.003,-0.0104 -0.8105,-1.9928 -0.0041,-0.01 -1.011,-1.8989 -0.0051,-0.0096 -1.2009,-1.7848 -0.0061,-0.009 -1.3781,-1.6519 -0.0069,-0.0083 -1.5407002,-1.5015 -0.0077,-0.0076 -1.6869,-1.3351 -0.0085,-0.0067 -1.8152,-1.1546 -0.0091,-0.0058 -1.9243,-0.9618 -0.0097,-0.0049 -2.013,-0.7588 -0.0101,-0.0038 -2.0804,-0.5479 -0.0104,-0.0028 -2.1257,-0.331 -0.0107,-0.0017 -2.1484,-0.1107 -0.0108,-6e-4 -2.1485,0.1107 -0.0107,6e-4 -2.1257,0.3311 -0.0107,0.0016 -2.0804,0.5479 -0.0104,0.0028 -2.013,0.7588 -0.0101,0.0038 -1.9243,0.9619 -0.0097,0.0048 -1.8152,1.1546 -0.0092,0.0058 -1.6868,1.3351 -0.0085,0.0067 -1.54066,1.5015 -0.0077,0.0076 -1.37811,1.6519 z m 11.80613,-2.828 0.0163,0.8122 10e-5,0.0041 7e-4,0.004 0.1483,0.7987 -0.0046,0.0023 -0.9057,0.4491 -0.001,-0.0042 -0.1924,-0.8363 -4e-4,-0.0043 -0.0705,-0.8553 3e-4,-0.0043 0.0528,-0.8566 9e-4,-0.0042 0.1751,-0.8401 0.0014,-0.0041 0.2938,-0.8063 0.0042,0.0028 0.844,0.5562 -0.0012,0.0039 -0.2454,0.7744 -0.1161,0.804 z m -2.6482,-2.069 -0.2799,1.2423 -0.0014,0.0062 -0.0782,1.2711 -4e-4,0.0063 0.1254,1.2673 6e-4,0.0063 0.326,1.2311 0.0016,0.0061 0.8662,-0.4295 0.0043,-0.0021 -0.2608,-1.0413 -0.0013,-0.0053 -0.0986,-1.0689 -5e-4,-0.0054 0.066,-1.0714 4e-4,-0.0054 0.229,-1.0487 0.0011,-0.0053 0.3867,-1.0014 0.0019,-0.005 -0.8072,-0.532 -0.004,-0.0027 -0.4745,1.1818 z m 13.4956,19.12 0.0059,0.0216 1.1649,4.3025 -0.0352,0.0203 -6.9925,4.0371 0,-0.025 0,-4.975 0.0293,-0.0169 z m -5.8569,-6.6185 0,4.975 0,0.025 4.6628,-2.6921 0.0234,-0.0135 -1.1648,-4.3025 -0.0059,-0.0216 -3.4979,2.0195 z m -1.0313,23.73344 -6.2261,-7.73344 0.0313,0 6.2261,0 0,0.0389 0,7.7334 z m -4.9381,-37.83634 -0.0098,0.0025 4.0851,2.7166 0.0205,0.0136 0.2274,-0.2877 0.0012,-0.0014 0.2713,-0.2468 0.0014,-0.0012 0.3079,-0.1991 0.0016,-10e-4 0.3363,-0.1462 0.0017,-7e-4 0.3557,-0.0893 0.0018,-5e-4 0.0018,-10e-5 0.3655,-0.0301 0,7.331 0,0.0368 3.4653,0 0.0174,0 0,-1.0256 0,-0.0051 13.7559002,0.9814 0.0691,0.0049 -0.0044,-0.0069 -0.8743,-1.373 -0.9835,-1.297 -0.0049,-0.0066 -1.0861002,-1.2123 -0.0055,-0.0061 -1.1815,-1.1197 -0.0059,-0.0056 -9.6305,2.5002 -0.0484,0.0125 0,-2.5461 0,-0.0128 1.4826,-0.0309 0.0075,-1e-4 -4.9479,-2.8493 -0.0249,-0.0143 0,-1.9855 0,-0.01 -0.0101,5e-4 -2.0104,0.1017 -1.9899,0.3042 -0.01,0.0016 z m 4.9694,39.0923 0,0.01054 0,6e-5 -0.0089,-0.011 0,-5e-5 -0.0095,-9.3e-4 -1.8807,-0.18471 -0.0094,-0.0018 -1.8547,-0.36216 -0.0092,-0.0027 -1.8121,-0.53634 -0.0088,-0.0035 -1.7531,-0.7057 -0.0084,-0.0044 -1.6783,-0.8687 0.0086,-0.03187 1.7047,-6.34312 0.0365,0.0453 7.2744,9.00065 0.0029,1.5e-4 0,0 0.003,1.5e-4 0,0 0.003,1.5e-4 z m -1.258,-35.0759 -1.6494,0.8179 -4e-4,-0.0027 -0.0804,-0.5457 -0.0042,-0.5516 0,-0.0028 0.0722,-0.5468 3e-4,-0.0028 8e-4,-0.0026 0.147,-0.5316 0.0077,0.005 1.5363,1.0125 -0.0131,0.1147 -10e-5,6e-4 -0.0072,0.1152 0,6e-4 0,6e-4 -0.0013,0.1154 z m 10.4564,25.3532 -8.1574,4.70963 -0.041,0.02367 0,4.98932 0,0.02507 0.0106,-5.5e-4 2.1022,-0.11128 2.0788,-0.33257 0.0104,-0.0017 2.032,-0.55016 0.0103,-0.0028 1.9626,-0.76159 0.0098,-0.0038 1.8713,-0.96452 0.0094,-0.0048 -1.8895,-6.9789 z m -9.2055,-14.0135 -1.412,-5.2532 0.0071,0 1.412,0 0,0.0264 0,5.2532 z m -0.0254,13.7468 -6.4691,0 0.0325,-0.039 6.4691,-7.7613 0,0.039 0,7.7613 z m -2.1876,-18.0326 -2.148,7.9924 -0.0108,0.0402 4.1124,0 0.0207,0 -1.9644,-7.9925 z m -4.4026,16.3817 1.9751,-7.3491 0.0232,0 4.6244,0 -0.0332,0.0369 -6.5994,7.3491 z"
     id="path3394"
     inkscape:connector-curvature="0"
     style="fill:none;stroke:#0000ff;stroke-width:0.05mm" />
</svg>
