<svg id="Layer_1" data-name="Layer 1" xmlns="http://www.w3.org/2000/svg" viewBox="0 0 229 400"><title>QWIX</title><path d="M52.31,345.45l-9.11-4.82a21.61,21.61,0,0,0,3.74-12.29c0-12.58-10-22-23.31-22s-23.3,9.36-23.3,22,10,22.13,23.3,22.13a24.58,24.58,0,0,0,13.11-3.64l6.88,3.64ZM10.37,328.34a13.35,13.35,0,0,1,13.39-13.45,13.52,13.52,0,0,1,0,27A13.49,13.49,0,0,1,10.37,328.34Z" fill="#1d1d1b"/><path d="M67.34,306.45l8.23,31.39,8.18-31.39H94.83l8.23,31.39,8.17-31.39h11.64l-14.3,43.4H96.87l-7.8-29.28-8,29.28H69.38l-14.24-43.4Z" fill="#1d1d1b"/><path d="M158.72,336v13.87H147.39V336.29l-16-29.84h11.33L153,325.09l10-18.64h11.33Z" fill="#1d1d1b"/><path d="M197.78,306.45l8.11,12.32,8.17-12.32h13.38l-14.3,20.74,15.53,22.66H215.12l-9.23-13.43-9,13.43H183.61L199,327.75l-14.42-21.3Z" fill="#1d1d1b"/><path d="M61.34,373.39a11.51,11.51,0,1,0,0,23,12.6,12.6,0,0,0,8.55-3.47l2,2.19a15.9,15.9,0,0,1-10.75,4.38,14.67,14.67,0,0,1-15-14.62c0-8.1,6.69-14.5,15.08-14.5a15.62,15.62,0,0,1,10.57,4.21l-2,2.4A12.25,12.25,0,0,0,61.34,373.39Z" fill="#e94e1b"/><path d="M96.78,399.38l-6.07-9.26c-.58,0-1.2.09-1.86.09H81.17v9.17H77.86V370.46h11c7.23,0,11.4,3.55,11.4,9.71,0,4.75-2.35,8-6.52,9.33l6.81,9.88Zm-7.93-12.23c5.25,0,8.22-2.36,8.22-6.9s-3-6.73-8.22-6.73H81.17v13.63Z" fill="#e94e1b"/><path d="M126,392H110.25l-3.23,7.4h-3.51l13-28.92h3.43l12.93,28.92h-3.59Zm-1.33-3.06-6.56-14.87-6.49,14.87Z" fill="#e94e1b"/><path d="M155.77,370.46v3.06H140.69v10.36H154.2v3H140.69v12.48h-3.31V370.46Z" fill="#e94e1b"/><path d="M182.78,370.46v3.06h-9.46v25.86H170V373.52H160.6v-3.06Z" fill="#e94e1b"/><polygon points="116.22 223.66 116.22 244.55 157.5 220.75 201.01 245.88 219.12 235.43 157.53 199.87 135.97 212.32 135.93 212.3 116.22 223.66"/><polygon points="220.66 184.33 220.66 163.45 160.95 197.87 179.05 208.32 220.66 184.33"/><polygon points="116.22 145.22 134.36 134.79 134.36 113.86 116.22 124.31 116.22 145.22"/><polygon points="177.51 157.58 177.51 88.97 159.31 99.47 159.39 147.17 177.51 157.58"/><polygon points="191.79 130.45 191.79 151.35 200.02 146.6 220.84 134.63 220.84 64.06 202.52 74.55 202.52 124.23 191.79 130.45"/><polygon points="94.68 134.64 112.78 145.19 112.78 124.3 94.68 113.75 94.68 134.64"/><polygon points="26.21 74.21 7.97 63.68 7.97 184.07 112.59 244.54 112.59 223.66 26.21 173.69 26.21 74.21"/><polygon points="85.06 17.22 103.28 27.74 114.52 21.49 200.8 71.54 219.11 61.08 114.49 0.5 85.06 17.22"/><polygon points="38.53 44.05 9.7 60.7 27.93 71.22 56.77 54.57 38.53 44.05"/><polygon points="9.7 60.7 27.93 71.22 27.93 71.22 9.7 60.7 9.7 60.7"/><polygon points="51.33 159.35 114.5 195.92 175.78 160.55 166.61 155.29 157.67 150.15 114.5 175.04 69.56 148.98 69.56 97.25 114.5 71.38 157.72 96.41 175.79 85.98 114.23 50.41 92.69 62.84 92.69 62.84 51.33 86.72 51.33 159.35" fill="#e94e1b"/><polygon points="157.72 96.41 175.79 85.98 175.79 85.98 157.72 96.41 157.72 96.41" fill="#e94e1b"/><polygon points="157.67 150.15 157.67 150.15 166.61 155.29 157.67 150.15" fill="#e94e1b"/><polygon points="70.88 25.38 52.78 35.82 92.69 58.87 101.22 53.94 110.78 48.42 70.88 25.38"/><polygon points="92.69 58.87 101.22 53.94 92.69 58.87 92.69 58.87"/><polygon points="114.5 100.31 96.39 110.76 114.5 121.32 132.65 110.88 114.5 100.31"/><polygon points="96.39 110.76 114.5 121.32 114.5 121.32 96.39 110.76 96.39 110.76"/></svg>