<svg id="Layer_1" data-name="Layer 1" xmlns="http://www.w3.org/2000/svg" viewBox="0 0 213 245"><title>QWIX</title><polygon points="108.31 222.97 108.31 243.86 149.59 220.06 193.11 245.19 211.21 234.74 149.62 199.18 128.06 211.64 128.02 211.61 108.31 222.97"/><polygon points="212.75 183.64 212.75 162.76 153.05 197.18 171.15 207.63 212.75 183.64"/><polygon points="108.31 144.53 126.46 134.1 126.46 113.17 108.31 123.62 108.31 144.53"/><polygon points="169.61 156.89 169.61 88.28 151.4 98.78 151.49 146.48 169.61 156.89"/><polygon points="183.88 129.76 183.88 150.66 192.11 145.91 212.93 133.94 212.93 63.37 194.61 73.86 194.61 123.55 183.88 129.76"/><polygon points="86.77 133.95 104.87 144.51 104.87 123.61 86.77 113.06 86.77 133.95"/><polygon points="18.3 73.52 0.07 62.99 0.07 183.38 104.69 243.85 104.69 222.97 18.3 173 18.3 73.52"/><polygon points="77.15 16.53 95.38 27.05 106.61 20.8 192.9 70.85 211.2 60.39 106.58 -0.19 77.15 16.53"/><polygon points="30.63 43.36 1.79 60.01 20.03 70.53 48.86 53.88 30.63 43.36"/><polygon points="1.79 60.01 20.02 70.54 20.03 70.53 1.79 60.01 1.79 60.01"/><polygon points="43.42 158.66 106.59 195.24 167.88 159.87 158.71 154.6 149.77 149.47 106.59 174.35 61.65 148.29 61.65 96.56 106.59 70.69 149.81 95.72 167.89 85.3 106.32 49.72 84.78 62.15 84.78 62.15 43.42 86.03 43.42 158.66" fill="#e94e1b"/><polygon points="149.81 95.72 167.89 85.3 167.89 85.3 149.81 95.72 149.81 95.72" fill="#e94e1b"/><polygon points="149.77 149.47 149.77 149.47 158.71 154.6 149.77 149.47" fill="#e94e1b"/><polygon points="62.97 24.69 44.87 35.14 84.78 58.18 93.31 53.25 102.88 47.73 62.97 24.69"/><polygon points="84.78 58.18 93.31 53.25 84.78 58.18 84.78 58.18"/><polygon points="106.59 99.62 88.48 110.07 106.6 120.63 124.74 110.19 106.59 99.62"/><polygon points="88.48 110.07 106.6 120.63 106.6 120.63 88.48 110.07 88.48 110.07"/></svg>