<svg id="Layer_1" data-name="Layer 1" xmlns="http://www.w3.org/2000/svg" viewBox="0 0 347 400"><title>QWIX</title><polygon points="176.46 363.78 176.46 397.83 243.74 359.04 314.68 400 344.19 382.96 243.8 325 208.65 345.3 208.58 345.26 176.46 363.78"/><polygon points="346.7 299.67 346.7 265.63 249.38 321.74 278.88 338.77 346.7 299.67"/><polygon points="176.46 235.91 206.03 218.91 206.03 184.8 176.46 201.82 176.46 235.91"/><polygon points="276.38 144.22 246.7 161.33 246.76 197.32 276.38 197.32 276.38 144.22"/><polygon points="299.65 211.84 299.65 245.92 347 218.65 347 103.61 317.13 120.7 317.13 201.71 299.65 211.84"/><polygon points="141.34 218.66 170.84 235.87 170.84 201.81 141.34 184.62 141.34 218.66"/><polygon points="29.73 120.15 0 102.99 0 299.24 170.54 397.82 170.54 363.78 29.73 282.33 29.73 120.15"/><polygon points="173.64 0 125.65 27.25 155.37 44.4 173.68 34.21 314.34 115.8 344.18 98.75 173.64 0"/><polygon points="49.82 70.99 2.81 98.13 32.53 115.29 79.54 88.15 49.82 70.99"/><polygon points="2.81 98.13 32.53 115.29 32.53 115.29 2.81 98.13 2.81 98.13"/><polygon points="102.54 40.55 73.04 57.58 138.09 95.14 167.59 78.11 102.54 40.55"/><polygon points="173.64 162.7 144.13 179.74 173.66 196.96 203.24 179.93 173.64 162.7"/><polygon points="144.13 179.74 173.66 196.96 173.66 196.96 144.13 179.74 144.13 179.74"/><polygon points="246.84 242.34 173.65 284.53 100.4 242.04 100.4 157.71 173.66 115.55 244.1 156.34 273.57 139.36 173.2 81.36 70.67 140.54 70.67 258.95 173.65 318.56 276.38 259.28 276.38 202.93 246.77 202.93 246.84 242.34" fill="#268d37"/></svg>