<svg id="Layer_1" data-name="Layer 1" xmlns="http://www.w3.org/2000/svg" viewBox="0 0 232 400"><title>QWIX</title><path d="M53.81,345.45l-9.11-4.82a21.61,21.61,0,0,0,3.74-12.29c0-12.58-10-22-23.31-22s-23.3,9.36-23.3,22,10,22.13,23.3,22.13a24.58,24.58,0,0,0,13.11-3.64l6.88,3.64ZM11.87,328.34a13.35,13.35,0,0,1,13.39-13.45,13.52,13.52,0,0,1,0,27A13.49,13.49,0,0,1,11.87,328.34Z" fill="#1d1d1b"/><path d="M68.84,306.45l8.23,31.39,8.18-31.39H96.33l8.23,31.39,8.17-31.39h11.64l-14.3,43.4H98.37l-7.8-29.28-8,29.28H70.88l-14.24-43.4Z" fill="#1d1d1b"/><path d="M160.22,336v13.87H148.89V336.29l-16-29.84h11.33l10.27,18.64,10-18.64h11.33Z" fill="#1d1d1b"/><path d="M199.28,306.45l8.11,12.32,8.17-12.32h13.38l-14.31,20.74,15.54,22.66H216.62l-9.23-13.43-9,13.43H185.11l15.41-22.1-14.42-21.3Z" fill="#1d1d1b"/><path d="M65.51,385.27h2.93v10.48a17.87,17.87,0,0,1-10.73,3.75,14.72,14.72,0,0,1-15.05-14.56c0-8.13,6.72-14.52,15.22-14.52a16.3,16.3,0,0,1,10.64,4l-1.89,2.39a13.31,13.31,0,0,0-8.75-3.34,11.54,11.54,0,1,0,0,23.06,13.79,13.79,0,0,0,7.59-2.44Z" fill="#268d37"/><path d="M94.68,392H79l-3.22,7.39H72.23l13-28.88h3.42l12.91,28.88H97.93Zm-1.32-3.05L86.8,374.09l-6.48,14.85Z" fill="#268d37"/><path d="M110.14,370.5l10.56,21,10.52-21h4.05v28.88h-3.06l0-24-10.52,20.95h-2l-10.48-20.95v24h-3.13V370.5Z" fill="#268d37"/><path d="M163.65,370.5v3.05h-16.3v9.7h14.56v3H147.35v10.06h16.83v3.06H144.05V370.5Z" fill="#268d37"/><path d="M179.28,373.59c-3.72,0-6.15,1.49-6.15,4,0,7.51,16.25,3.59,16.21,14.07,0,4.79-4.25,7.88-10.44,7.88a16.52,16.52,0,0,1-11.05-4.41l1.48-2.85a14.53,14.53,0,0,0,9.62,4c4.16,0,6.76-1.69,6.76-4.49,0-7.72-16.21-3.63-16.21-14,0-4.54,4-7.43,10-7.43a17.08,17.08,0,0,1,9.16,2.69l-1.4,2.93A15.14,15.14,0,0,0,179.28,373.59Z" fill="#268d37"/><polygon points="117.72 223.66 117.72 244.55 159 220.75 202.51 245.88 220.62 235.43 159.03 199.87 137.47 212.32 137.43 212.3 117.72 223.66"/><polygon points="222.16 184.33 222.16 163.45 162.45 197.87 180.55 208.32 222.16 184.33"/><polygon points="117.72 145.22 135.86 134.79 135.86 113.86 117.72 124.31 117.72 145.22"/><polygon points="179.01 88.97 160.81 99.47 160.85 121.54 179.01 121.54 179.01 88.97"/><polygon points="193.29 130.45 193.29 151.36 222.34 134.63 222.34 64.06 204.02 74.55 204.02 124.23 193.29 130.45"/><polygon points="96.18 134.64 114.28 145.19 114.28 124.3 96.18 113.75 96.18 134.64"/><polygon points="27.71 74.21 9.47 63.68 9.47 184.07 114.09 244.54 114.09 223.66 27.71 173.69 27.71 74.21"/><polygon points="115.99 0.5 86.56 17.22 104.78 27.74 116.02 21.49 202.3 71.54 220.61 61.08 115.99 0.5"/><polygon points="40.03 44.05 11.2 60.7 29.43 71.22 58.27 54.57 40.03 44.05"/><polygon points="11.2 60.7 29.43 71.22 29.43 71.22 11.2 60.7 11.2 60.7"/><polygon points="72.38 25.38 54.28 35.82 94.19 58.87 112.28 48.42 72.38 25.38"/><polygon points="116 100.31 97.89 110.76 116 121.32 134.15 110.88 116 100.31"/><polygon points="97.89 110.76 116 121.32 116 121.32 97.89 110.76 97.89 110.76"/><polygon points="160.89 149.16 116 175.04 71.06 148.98 71.06 97.24 116 71.38 159.22 96.41 177.29 85.99 115.72 50.41 52.83 86.72 52.83 159.35 116 195.92 179.01 159.55 179.01 124.99 160.85 124.99 160.89 149.16" fill="#268d37"/></svg>